<svg width="654" height="767" viewBox="0 0 654 767" fill="none" xmlns="http://www.w3.org/2000/svg">
<path d="M123.885 9.08984C165.307 9.08984 198.885 42.6685 198.885 84.0898L198.885 387.862C198.885 389.519 197.542 390.862 195.885 390.862H60.0001C26.863 390.862 7.62939e-05 363.999 7.62939e-05 330.862L7.62939e-05 84.0898C7.62939e-05 42.6685 33.5787 9.08984 75.0001 9.08984L123.885 9.08984Z" fill="#F15B35"/>
<ellipse cx="99.4425" cy="96.0113" rx="82.3765" ry="94.2767" transform="rotate(90 99.4425 96.0113)" fill="#D33030" fill-opacity="0.92"/>
<g filter="url(#filter0_d_1092_1412)">
<path d="M8 499.979C8 541.4 41.5786 574.979 83 574.979L438.931 574.979C440.588 574.979 441.931 573.636 441.931 571.979V450C441.931 422.386 419.546 400 391.931 400L82.9999 400C41.5786 400 8 433.579 8 475L8 499.979Z" fill="#2CDF43"/>
<path d="M599.605 574.931C627.22 574.931 649.605 552.545 649.605 524.931V243.159C649.605 215.544 627.22 193.159 599.605 193.159H450.72V574.931H599.605Z" fill="#006738"/>
<path d="M216.966 709C216.966 736.614 239.352 759 266.966 759H383.932C411.546 759 433.931 736.614 433.931 709V584.021H216.966V709Z" fill="#F15B35"/>
<path d="M267.926 0C234.789 0 207.926 26.8629 207.926 60V120.886C207.926 159.546 239.266 190.886 277.926 190.886L441.68 190.886V60C441.68 26.8629 414.818 0 381.68 0L267.926 0Z" fill="#3AB54A"/>
<ellipse cx="93.631" cy="82.9446" rx="93.631" ry="82.9446" transform="matrix(1 0 0 -1 5.16602 570.386)" fill="#006738" fill-opacity="0.72"/>
<path d="M75.3395 303.453C75.2732 302.833 74.9938 302.35 74.5014 302.004C74.0137 301.659 73.3793 301.486 72.598 301.486C72.0488 301.486 71.5777 301.569 71.1847 301.734C70.7917 301.9 70.491 302.125 70.2827 302.409C70.0743 302.693 69.9678 303.018 69.9631 303.382C69.9631 303.685 70.0317 303.948 70.169 304.17C70.3111 304.393 70.5028 304.582 70.7443 304.739C70.9858 304.89 71.2533 305.018 71.5469 305.122C71.8404 305.226 72.1364 305.314 72.4347 305.385L73.7983 305.726C74.3475 305.854 74.8755 306.027 75.3821 306.244C75.8935 306.462 76.3504 306.737 76.7528 307.068C77.16 307.4 77.482 307.8 77.7188 308.268C77.9555 308.737 78.0739 309.286 78.0739 309.916C78.0739 310.768 77.8561 311.519 77.4205 312.168C76.9848 312.812 76.3551 313.316 75.5312 313.68C74.7121 314.04 73.7202 314.22 72.5554 314.22C71.4238 314.22 70.4413 314.045 69.608 313.695C68.7794 313.344 68.1307 312.833 67.6619 312.161C67.1979 311.488 66.947 310.669 66.9091 309.703H69.5014C69.5393 310.21 69.6955 310.631 69.9702 310.967C70.2448 311.304 70.6023 311.554 71.0426 311.72C71.4877 311.886 71.9848 311.969 72.5341 311.969C73.107 311.969 73.6089 311.884 74.0398 311.713C74.4754 311.538 74.8163 311.296 75.0625 310.989C75.3087 310.676 75.4342 310.312 75.4389 309.895C75.4342 309.516 75.3229 309.204 75.1051 308.957C74.8873 308.706 74.5819 308.498 74.1889 308.332C73.8007 308.162 73.3461 308.01 72.8253 307.878L71.1705 307.452C69.9725 307.144 69.0256 306.678 68.3295 306.053C67.6383 305.423 67.2926 304.587 67.2926 303.545C67.2926 302.688 67.5246 301.938 67.9886 301.294C68.4574 300.65 69.0942 300.151 69.8991 299.795C70.7041 299.436 71.6155 299.256 72.6335 299.256C73.6657 299.256 74.5701 299.436 75.3466 299.795C76.1278 300.151 76.741 300.645 77.1861 301.28C77.6312 301.91 77.8608 302.634 77.875 303.453H75.3395ZM85.0678 314.213C84.0025 314.213 83.0792 313.979 82.2979 313.51C81.5167 313.041 80.9106 312.385 80.4798 311.543C80.0536 310.7 79.8406 309.715 79.8406 308.588C79.8406 307.461 80.0536 306.474 80.4798 305.626C80.9106 304.779 81.5167 304.121 82.2979 303.652C83.0792 303.183 84.0025 302.949 85.0678 302.949C86.1332 302.949 87.0565 303.183 87.8377 303.652C88.619 304.121 89.2227 304.779 89.6488 305.626C90.0797 306.474 90.2951 307.461 90.2951 308.588C90.2951 309.715 90.0797 310.7 89.6488 311.543C89.2227 312.385 88.619 313.041 87.8377 313.51C87.0565 313.979 86.1332 314.213 85.0678 314.213ZM85.082 312.153C85.6597 312.153 86.1426 311.995 86.5309 311.678C86.9192 311.356 87.208 310.925 87.3974 310.385C87.5915 309.845 87.6886 309.244 87.6886 308.581C87.6886 307.913 87.5915 307.31 87.3974 306.77C87.208 306.225 86.9192 305.792 86.5309 305.47C86.1426 305.148 85.6597 304.987 85.082 304.987C84.4902 304.987 83.9978 305.148 83.6048 305.47C83.2165 305.792 82.9253 306.225 82.7312 306.77C82.5418 307.31 82.4471 307.913 82.4471 308.581C82.4471 309.244 82.5418 309.845 82.7312 310.385C82.9253 310.925 83.2165 311.356 83.6048 311.678C83.9978 311.995 84.4902 312.153 85.082 312.153ZM95.0483 299.455V314H92.4773V299.455H95.0483ZM104.645 309.412V303.091H107.216V314H104.723V312.061H104.61C104.364 312.672 103.959 313.171 103.395 313.56C102.837 313.948 102.148 314.142 101.328 314.142C100.614 314.142 99.9814 313.983 99.4322 313.666C98.8877 313.344 98.4615 312.878 98.1538 312.267C97.846 311.652 97.6921 310.908 97.6921 310.037V303.091H100.263V309.639C100.263 310.33 100.453 310.88 100.831 311.287C101.21 311.694 101.707 311.898 102.323 311.898C102.702 311.898 103.069 311.805 103.424 311.621C103.779 311.436 104.07 311.161 104.297 310.797C104.529 310.428 104.645 309.966 104.645 309.412ZM115.308 303.091V305.08H109.036V303.091H115.308ZM110.585 300.477H113.156V310.719C113.156 311.064 113.208 311.33 113.312 311.514C113.421 311.694 113.563 311.817 113.738 311.884C113.913 311.95 114.107 311.983 114.32 311.983C114.481 311.983 114.628 311.971 114.761 311.947C114.898 311.924 115.002 311.902 115.073 311.884L115.506 313.893C115.369 313.941 115.173 313.993 114.917 314.05C114.666 314.107 114.358 314.14 113.994 314.149C113.35 314.168 112.77 314.071 112.254 313.858C111.737 313.64 111.328 313.304 111.025 312.849C110.727 312.395 110.58 311.827 110.585 311.145V300.477ZM117.458 314V303.091H120.029V314H117.458ZM118.75 301.543C118.343 301.543 117.993 301.408 117.699 301.138C117.406 300.863 117.259 300.534 117.259 300.151C117.259 299.762 117.406 299.433 117.699 299.163C117.993 298.889 118.343 298.751 118.75 298.751C119.162 298.751 119.513 298.889 119.801 299.163C120.095 299.433 120.242 299.762 120.242 300.151C120.242 300.534 120.095 300.863 119.801 301.138C119.513 301.408 119.162 301.543 118.75 301.543ZM127.431 314.213C126.366 314.213 125.442 313.979 124.661 313.51C123.88 313.041 123.274 312.385 122.843 311.543C122.417 310.7 122.204 309.715 122.204 308.588C122.204 307.461 122.417 306.474 122.843 305.626C123.274 304.779 123.88 304.121 124.661 303.652C125.442 303.183 126.366 302.949 127.431 302.949C128.496 302.949 129.42 303.183 130.201 303.652C130.982 304.121 131.586 304.779 132.012 305.626C132.443 306.474 132.658 307.461 132.658 308.588C132.658 309.715 132.443 310.7 132.012 311.543C131.586 312.385 130.982 313.041 130.201 313.51C129.42 313.979 128.496 314.213 127.431 314.213ZM127.445 312.153C128.023 312.153 128.506 311.995 128.894 311.678C129.282 311.356 129.571 310.925 129.761 310.385C129.955 309.845 130.052 309.244 130.052 308.581C130.052 307.913 129.955 307.31 129.761 306.77C129.571 306.225 129.282 305.792 128.894 305.47C128.506 305.148 128.023 304.987 127.445 304.987C126.853 304.987 126.361 305.148 125.968 305.47C125.58 305.792 125.289 306.225 125.094 306.77C124.905 307.31 124.81 307.913 124.81 308.581C124.81 309.244 124.905 309.845 125.094 310.385C125.289 310.925 125.58 311.356 125.968 311.678C126.361 311.995 126.853 312.153 127.445 312.153ZM137.412 307.608V314H134.841V303.091H137.298V304.945H137.426C137.677 304.334 138.077 303.848 138.626 303.489C139.18 303.129 139.864 302.949 140.679 302.949C141.431 302.949 142.087 303.11 142.646 303.432C143.209 303.754 143.645 304.22 143.953 304.831C144.265 305.442 144.419 306.183 144.414 307.054V314H141.843V307.452C141.843 306.723 141.654 306.152 141.275 305.74C140.901 305.328 140.383 305.122 139.72 305.122C139.27 305.122 138.87 305.222 138.52 305.42C138.174 305.615 137.902 305.896 137.703 306.266C137.509 306.635 137.412 307.082 137.412 307.608Z" fill="#EDDBC7"/>
</g>
<g filter="url(#filter1_i_1092_1412)">
<path fill-rule="evenodd" clip-rule="evenodd" d="M364.214 199.976H325.914L345.127 213.337L364.214 199.976ZM317.255 205.712L296.405 220.308L315.85 233.83L336.7 219.235L317.255 205.712ZM287.726 214.272L308.147 199.976H277.925C274.606 199.976 271.34 200.207 268.143 200.654L287.726 214.272ZM255.524 203.637L279.299 220.171L261.353 232.734L235.184 214.536C241.251 209.851 248.11 206.14 255.524 203.637ZM227.774 221.141C222.006 227.064 217.278 234.004 213.886 241.667L231.297 253.775L252.927 238.633L227.774 221.141ZM261.606 244.669L239.977 259.811L259.418 273.33L281.049 258.189L261.606 244.669ZM222.871 259.674L210.507 251.076C208.825 257.088 207.925 263.427 207.925 269.976V270.136L222.871 259.674ZM231.551 265.71L250.991 279.229L229.76 294.09L210.321 280.572L231.551 265.71ZM207.925 290.664V309.373L221.333 299.988L207.925 290.664ZM207.925 328.997V330.862C207.925 336.564 208.721 342.08 210.206 347.306L222.266 338.969L207.925 328.997ZM211.873 352.312C219.339 371.811 236.687 386.419 257.789 390.01L276.726 376.841L258.959 364.486L237.742 379.241L231.06 371.806L250.273 358.445L230.958 345.014L215.13 355.956L211.873 352.312ZM273.936 390.862H296.888L285.412 382.882L273.936 390.862ZM351.202 390.862H325.472L338.741 381.635L351.606 390.581L351.202 390.862ZM368.919 390.862H381.68C389.894 390.862 397.722 389.212 404.851 386.225L390.047 375.93L368.747 390.743L368.919 390.862ZM414.442 381.136C421.536 376.504 427.589 370.411 432.175 363.284L420.204 354.959L398.502 370.051L414.442 381.136ZM436.754 354.71C438.687 350.251 440.095 345.51 440.899 340.567L428.658 349.08L436.754 354.71ZM441.68 310.05V321.333L433.567 315.692L441.68 310.05ZM441.68 292.239V297.969L424.881 309.651L407.799 297.772L428.718 283.225L441.68 292.239ZM441.68 274.212V280.481L437.172 277.346L441.68 274.212ZM441.68 247.358V262.13L428.486 271.305L410.719 258.95L434.534 242.389L441.68 247.358ZM441.68 225.339V199.976H426.736L432.096 205.974L415.537 217.42L434.302 230.469L441.68 225.339ZM423.335 199.976H390.453L406.845 211.375L423.335 199.976ZM270.033 238.77L287.979 226.207L307.423 239.728L289.475 252.291L270.033 238.77ZM353.807 219.373L377.544 202.758L398.365 217.237L374.479 233.749L353.807 219.373ZM383.172 239.793L407.058 223.282L425.848 236.349L402.033 252.91L383.172 239.793ZM425.113 321.571L437.978 330.517L419.971 343.039L407.107 334.093L425.113 321.571ZM398.652 339.972L411.517 348.918L389.815 364.01L376.95 355.064L398.652 339.972ZM368.496 360.943L381.361 369.889L360.06 384.702L347.195 375.756L368.496 360.943ZM330.055 375.594L310.948 388.881L293.866 377.003L312.973 363.716L330.055 375.594ZM304.287 357.675L285.18 370.962L267.413 358.607L286.52 345.32L304.287 357.675ZM277.834 339.279L258.727 352.566L239.438 339.152L258.602 325.905L277.834 339.279ZM249.909 319.86L230.745 333.108L210.969 319.355L230.013 306.024L249.909 319.86ZM258.389 313.999L238.44 300.126L259.671 285.265L279.753 299.23L258.389 313.999ZM288.232 293.368L268.098 279.366L289.729 264.225L309.999 278.322L288.232 293.368ZM318.479 272.46L298.155 258.327L316.103 245.764L336.539 259.976L318.479 272.46ZM345.018 254.114L324.53 239.866L345.38 225.271L366 239.61L345.018 254.114ZM353.711 260.159L374.692 245.655L393.579 258.789L372.66 273.336L353.711 260.159ZM381.346 279.377L402.265 264.83L420.032 277.185L399.113 291.732L381.346 279.377ZM399.345 303.652L416.427 315.53L398.42 328.052L381.339 316.174L399.345 303.652ZM372.884 322.053L389.966 333.931L368.264 349.023L351.182 337.144L372.884 322.053ZM342.728 343.024L359.81 354.902L338.509 369.715L321.427 357.836L342.728 343.024ZM334.042 336.983L312.741 351.796L294.974 339.441L316.275 324.628L334.042 336.983ZM307.589 318.587L286.288 333.4L267.081 320.043L288.445 305.275L307.589 318.587ZM316.043 312.708L296.925 299.413L318.692 284.367L337.745 297.616L316.043 312.708ZM346.199 291.737L327.171 278.505L345.231 266.02L364.206 279.215L346.199 291.737ZM354.886 297.778L372.892 285.256L390.659 297.611L372.652 310.133L354.886 297.778ZM346.431 303.657L364.198 316.012L342.496 331.104L324.729 318.749L346.431 303.657Z" fill="#BF1E2E"/>
</g>
<path d="M60.8419 97.3997V82.8542H66.2964C67.4139 82.8542 68.3514 83.0625 69.1089 83.4792C69.8712 83.8959 70.4465 84.4688 70.8348 85.198C71.2278 85.9224 71.4243 86.7462 71.4243 87.6695C71.4243 88.6023 71.2278 89.4309 70.8348 90.1553C70.4418 90.8798 69.8618 91.4503 69.0947 91.867C68.3277 92.2789 67.3831 92.4849 66.2609 92.4849H62.6459V90.3187H65.9058C66.5592 90.3187 67.0943 90.2051 67.5109 89.9778C67.9276 89.7505 68.2354 89.438 68.4342 89.0403C68.6378 88.6426 68.7396 88.1856 68.7396 87.6695C68.7396 87.1534 68.6378 86.6989 68.4342 86.3059C68.2354 85.9129 67.9252 85.6075 67.5038 85.3897C67.0872 85.1672 66.5497 85.0559 65.8916 85.0559H63.4768V97.3997H60.8419ZM73.5993 97.3997V86.4906H76.0922V88.3087H76.2059C76.4047 87.679 76.7457 87.1937 77.2286 86.8528C77.7163 86.5071 78.2726 86.3343 78.8976 86.3343C79.0397 86.3343 79.1983 86.3414 79.3735 86.3556C79.5534 86.3651 79.7026 86.3817 79.8209 86.4053V88.7704C79.712 88.7325 79.5392 88.6994 79.3025 88.671C79.0705 88.6378 78.8456 88.6212 78.6278 88.6212C78.159 88.6212 77.7376 88.723 77.3635 88.9266C76.9942 89.1255 76.703 89.4025 76.49 89.7576C76.2769 90.1127 76.1704 90.5223 76.1704 90.9863V97.3997H73.5993ZM85.8383 97.6127C84.773 97.6127 83.8497 97.3784 83.0684 96.9096C82.2872 96.4409 81.6811 95.7851 81.2503 94.9423C80.8241 94.0995 80.6111 93.1146 80.6111 91.9877C80.6111 90.8608 80.8241 89.8736 81.2503 89.0261C81.6811 88.1785 82.2872 87.5204 83.0684 87.0516C83.8497 86.5829 84.773 86.3485 85.8383 86.3485C86.9037 86.3485 87.827 86.5829 88.6082 87.0516C89.3895 87.5204 89.9932 88.1785 90.4193 89.0261C90.8502 89.8736 91.0656 90.8608 91.0656 91.9877C91.0656 93.1146 90.8502 94.0995 90.4193 94.9423C89.9932 95.7851 89.3895 96.4409 88.6082 96.9096C87.827 97.3784 86.9037 97.6127 85.8383 97.6127ZM85.8525 95.5531C86.4302 95.5531 86.9131 95.3944 87.3014 95.0772C87.6897 94.7552 87.9785 94.3244 88.1679 93.7846C88.362 93.2448 88.4591 92.6435 88.4591 91.9806C88.4591 91.313 88.362 90.7093 88.1679 90.1695C87.9785 89.625 87.6897 89.1918 87.3014 88.8698C86.9131 88.5479 86.4302 88.3869 85.8525 88.3869C85.2607 88.3869 84.7683 88.5479 84.3753 88.8698C83.987 89.1918 83.6958 89.625 83.5017 90.1695C83.3123 90.7093 83.2176 91.313 83.2176 91.9806C83.2176 92.6435 83.3123 93.2448 83.5017 93.7846C83.6958 94.3244 83.987 94.7552 84.3753 95.0772C84.7683 95.3944 85.2607 95.5531 85.8525 95.5531ZM93.3614 97.3997V82.8542H95.9324V88.2945H96.039C96.1715 88.0294 96.3586 87.7477 96.6001 87.4494C96.8415 87.1463 97.1682 86.8883 97.5802 86.6752C97.9921 86.4574 98.5177 86.3485 99.1569 86.3485C99.9997 86.3485 100.76 86.564 101.437 86.9948C102.119 87.421 102.658 88.0531 103.056 88.8911C103.458 89.7245 103.66 90.7472 103.66 91.9593C103.66 93.1572 103.463 94.1752 103.07 95.0133C102.677 95.8514 102.142 96.4906 101.465 96.9309C100.788 97.3712 100.021 97.5914 99.164 97.5914C98.539 97.5914 98.0205 97.4873 97.6086 97.2789C97.1966 97.0706 96.8652 96.8196 96.6143 96.5261C96.368 96.2278 96.1763 95.9461 96.039 95.6809H95.8898V97.3997H93.3614ZM95.8827 91.9451C95.8827 92.6506 95.9822 93.2685 96.181 93.7988C96.3846 94.3291 96.6758 94.7434 97.0546 95.0417C97.4381 95.3353 97.9021 95.482 98.4466 95.482C99.0148 95.482 99.4907 95.3305 99.8742 95.0275C100.258 94.7197 100.547 94.3007 100.741 93.7704C100.94 93.2354 101.039 92.6269 101.039 91.9451C101.039 91.268 100.942 90.6667 100.748 90.1411C100.554 89.6156 100.265 89.2036 99.8813 88.9053C99.4978 88.607 99.0196 88.4579 98.4466 88.4579C97.8974 88.4579 97.431 88.6023 97.0475 88.8911C96.664 89.18 96.3728 89.5848 96.1739 90.1056C95.9798 90.6265 95.8827 91.2396 95.8827 91.9451ZM108.416 82.8542V97.3997H105.845V82.8542H108.416ZM115.89 97.6127C114.796 97.6127 113.851 97.3855 113.056 96.9309C112.265 96.4716 111.657 95.823 111.231 94.9849C110.805 94.1421 110.592 93.1501 110.592 92.009C110.592 90.8869 110.805 89.902 111.231 89.0545C111.662 88.2022 112.263 87.5393 113.035 87.0659C113.806 86.5876 114.713 86.3485 115.755 86.3485C116.427 86.3485 117.062 86.4574 117.658 86.6752C118.26 86.8883 118.79 87.2197 119.249 87.6695C119.713 88.1194 120.078 88.6923 120.343 89.3883C120.608 90.0796 120.741 90.9034 120.741 91.8599V92.6482H111.799V90.9153H118.276C118.271 90.4229 118.165 89.9849 117.957 89.6014C117.748 89.2131 117.457 88.9077 117.083 88.6852C116.714 88.4626 116.283 88.3514 115.79 88.3514C115.265 88.3514 114.803 88.4792 114.405 88.7349C114.008 88.9858 113.698 89.3173 113.475 89.7292C113.257 90.1364 113.146 90.5838 113.141 91.0715V92.5843C113.141 93.2188 113.257 93.7633 113.489 94.2178C113.721 94.6677 114.046 95.0133 114.462 95.2548C114.879 95.4915 115.367 95.6099 115.925 95.6099C116.299 95.6099 116.638 95.5578 116.941 95.4536C117.244 95.3447 117.507 95.1861 117.729 94.9778C117.952 94.7694 118.12 94.5114 118.234 94.2036L120.634 94.4735C120.483 95.108 120.194 95.662 119.768 96.1355C119.346 96.6042 118.806 96.9688 118.148 97.2292C117.49 97.4849 116.737 97.6127 115.89 97.6127ZM122.916 97.3997V86.4906H125.373V88.3443H125.501C125.728 87.7193 126.105 87.2316 126.63 86.8812C127.156 86.5261 127.783 86.3485 128.512 86.3485C129.251 86.3485 129.874 86.5284 130.38 86.8883C130.892 87.2434 131.251 87.7287 131.46 88.3443H131.573C131.815 87.7382 132.222 87.2552 132.795 86.8954C133.373 86.5308 134.057 86.3485 134.848 86.3485C135.851 86.3485 136.67 86.6658 137.305 87.3002C137.939 87.9347 138.257 88.8604 138.257 90.0772V97.3997H135.679V90.4749C135.679 89.7979 135.499 89.3031 135.139 88.9906C134.779 88.6733 134.339 88.5147 133.818 88.5147C133.197 88.5147 132.712 88.7088 132.362 89.0971C132.016 89.4806 131.843 89.9802 131.843 90.5957V97.3997H129.322V90.3684C129.322 89.805 129.152 89.3552 128.811 89.019C128.474 88.6828 128.034 88.5147 127.49 88.5147C127.12 88.5147 126.784 88.6094 126.481 88.7988C126.178 88.9835 125.937 89.2462 125.757 89.5872C125.577 89.9233 125.487 90.3163 125.487 90.7661V97.3997H122.916Z" fill="#EDDBC7"/>
<path d="M99.2561 255.618C99.8556 256.193 100.805 256.176 101.377 255.58L110.695 245.861C111.267 245.265 111.245 244.316 110.645 243.741C110.046 243.166 109.096 243.183 108.524 243.78L100.241 252.418L91.5565 244.091C90.957 243.516 90.0074 243.533 89.4355 244.129C88.8637 244.726 88.8862 245.675 89.4858 246.25L99.2561 255.618ZM97.5003 200.027L98.7917 254.566L101.791 254.511L100.5 199.973L97.5003 200.027Z" fill="#EDDBC7"/>
<path d="M124.275 464.586C124.211 463.814 123.449 463.247 122.574 463.319L108.299 464.499C107.423 464.572 106.765 465.256 106.829 466.028C106.893 466.8 107.654 467.367 108.53 467.295L121.219 466.246L122.143 477.429C122.207 478.201 122.969 478.768 123.845 478.695C124.721 478.623 125.379 477.939 125.315 477.167L124.275 464.586ZM81.274 509.926L123.892 465.613L121.486 463.821L78.8676 508.134L81.274 509.926Z" fill="#EDDBC7"/>
<path d="M218.432 469.727C218.432 471.295 218.138 472.637 217.551 473.754C216.969 474.867 216.173 475.719 215.165 476.311C214.161 476.903 213.022 477.199 211.749 477.199C210.475 477.199 209.334 476.903 208.325 476.311C207.321 475.714 206.526 474.86 205.939 473.747C205.357 472.63 205.065 471.29 205.065 469.727C205.065 468.16 205.357 466.82 205.939 465.707C206.526 464.59 207.321 463.735 208.325 463.143C209.334 462.552 210.475 462.256 211.749 462.256C213.022 462.256 214.161 462.552 215.165 463.143C216.173 463.735 216.969 464.59 217.551 465.707C218.138 466.82 218.432 468.16 218.432 469.727ZM215.783 469.727C215.783 468.624 215.61 467.694 215.264 466.936C214.923 466.174 214.45 465.598 213.844 465.21C213.238 464.817 212.539 464.621 211.749 464.621C210.958 464.621 210.259 464.817 209.653 465.21C209.047 465.598 208.571 466.174 208.226 466.936C207.885 467.694 207.714 468.624 207.714 469.727C207.714 470.83 207.885 471.763 208.226 472.526C208.571 473.283 209.047 473.858 209.653 474.251C210.259 474.64 210.958 474.834 211.749 474.834C212.539 474.834 213.238 474.64 213.844 474.251C214.45 473.858 214.923 473.283 215.264 472.526C215.61 471.763 215.783 470.83 215.783 469.727ZM223.38 470.608V477H220.809V466.091H223.267V467.945H223.395C223.645 467.334 224.046 466.848 224.595 466.489C225.149 466.129 225.833 465.949 226.647 465.949C227.4 465.949 228.056 466.11 228.615 466.432C229.178 466.754 229.614 467.22 229.922 467.831C230.234 468.442 230.388 469.183 230.383 470.054V477H227.812V470.452C227.812 469.723 227.623 469.152 227.244 468.74C226.87 468.328 226.351 468.122 225.689 468.122C225.239 468.122 224.839 468.222 224.488 468.42C224.143 468.615 223.87 468.896 223.672 469.266C223.477 469.635 223.38 470.082 223.38 470.608ZM237.826 477.213C236.733 477.213 235.788 476.986 234.993 476.531C234.202 476.072 233.593 475.423 233.167 474.585C232.741 473.742 232.528 472.75 232.528 471.609C232.528 470.487 232.741 469.502 233.167 468.655C233.598 467.803 234.199 467.14 234.971 466.666C235.743 466.188 236.65 465.949 237.691 465.949C238.364 465.949 238.998 466.058 239.595 466.276C240.196 466.489 240.726 466.82 241.186 467.27C241.65 467.72 242.014 468.293 242.279 468.989C242.545 469.68 242.677 470.504 242.677 471.46V472.249H233.735V470.516H240.213C240.208 470.023 240.101 469.585 239.893 469.202C239.685 468.813 239.394 468.508 239.02 468.286C238.65 468.063 238.219 467.952 237.727 467.952C237.201 467.952 236.74 468.08 236.342 468.335C235.944 468.586 235.634 468.918 235.412 469.33C235.194 469.737 235.083 470.184 235.078 470.672V472.185C235.078 472.819 235.194 473.364 235.426 473.818C235.658 474.268 235.982 474.614 236.399 474.855C236.815 475.092 237.303 475.21 237.862 475.21C238.236 475.21 238.574 475.158 238.877 475.054C239.181 474.945 239.443 474.786 239.666 474.578C239.888 474.37 240.056 474.112 240.17 473.804L242.571 474.074C242.419 474.708 242.13 475.262 241.704 475.736C241.283 476.205 240.743 476.569 240.085 476.83C239.427 477.085 238.674 477.213 237.826 477.213ZM258.435 468.974L256.092 469.23C256.025 468.993 255.909 468.771 255.744 468.562C255.583 468.354 255.365 468.186 255.09 468.058C254.816 467.93 254.479 467.866 254.082 467.866C253.547 467.866 253.097 467.982 252.732 468.214C252.372 468.446 252.195 468.747 252.2 469.116C252.195 469.434 252.311 469.692 252.548 469.891C252.789 470.089 253.187 470.253 253.741 470.381L255.602 470.778C256.634 471.001 257.401 471.354 257.903 471.837C258.409 472.32 258.665 472.952 258.67 473.733C258.665 474.42 258.464 475.026 258.066 475.551C257.673 476.072 257.126 476.479 256.425 476.773C255.725 477.066 254.92 477.213 254.011 477.213C252.675 477.213 251.601 476.934 250.786 476.375C249.972 475.812 249.487 475.028 249.33 474.024L251.837 473.783C251.951 474.275 252.192 474.647 252.562 474.898C252.931 475.149 253.412 475.274 254.004 475.274C254.614 475.274 255.104 475.149 255.474 474.898C255.848 474.647 256.035 474.337 256.035 473.967C256.035 473.655 255.914 473.397 255.673 473.193C255.436 472.99 255.067 472.833 254.565 472.724L252.704 472.334C251.657 472.116 250.883 471.749 250.381 471.233C249.879 470.712 249.631 470.054 249.636 469.259C249.631 468.586 249.813 468.004 250.183 467.511C250.557 467.014 251.075 466.631 251.738 466.361C252.406 466.086 253.175 465.949 254.046 465.949C255.325 465.949 256.331 466.221 257.065 466.766C257.803 467.31 258.26 468.046 258.435 468.974ZM265.548 477.213C264.483 477.213 263.56 476.979 262.778 476.51C261.997 476.041 261.391 475.385 260.96 474.543C260.534 473.7 260.321 472.715 260.321 471.588C260.321 470.461 260.534 469.474 260.96 468.626C261.391 467.779 261.997 467.121 262.778 466.652C263.56 466.183 264.483 465.949 265.548 465.949C266.614 465.949 267.537 466.183 268.318 466.652C269.099 467.121 269.703 467.779 270.129 468.626C270.56 469.474 270.776 470.461 270.776 471.588C270.776 472.715 270.56 473.7 270.129 474.543C269.703 475.385 269.099 476.041 268.318 476.51C267.537 476.979 266.614 477.213 265.548 477.213ZM265.562 475.153C266.14 475.153 266.623 474.995 267.011 474.678C267.4 474.356 267.688 473.925 267.878 473.385C268.072 472.845 268.169 472.244 268.169 471.581C268.169 470.913 268.072 470.31 267.878 469.77C267.688 469.225 267.4 468.792 267.011 468.47C266.623 468.148 266.14 467.987 265.562 467.987C264.971 467.987 264.478 468.148 264.085 468.47C263.697 468.792 263.406 469.225 263.212 469.77C263.022 470.31 262.928 470.913 262.928 471.581C262.928 472.244 263.022 472.845 263.212 473.385C263.406 473.925 263.697 474.356 264.085 474.678C264.478 474.995 264.971 475.153 265.562 475.153ZM275.529 462.455V477H272.958V462.455H275.529ZM285.126 472.412V466.091H287.697V477H285.204V475.061H285.09C284.844 475.672 284.439 476.171 283.876 476.56C283.317 476.948 282.628 477.142 281.809 477.142C281.094 477.142 280.462 476.983 279.913 476.666C279.368 476.344 278.942 475.878 278.634 475.267C278.326 474.652 278.173 473.908 278.173 473.037V466.091H280.744V472.639C280.744 473.33 280.933 473.88 281.312 474.287C281.691 474.694 282.188 474.898 282.803 474.898C283.182 474.898 283.549 474.805 283.904 474.621C284.259 474.436 284.55 474.161 284.778 473.797C285.01 473.428 285.126 472.966 285.126 472.412ZM295.788 466.091V468.08H289.517V466.091H295.788ZM291.065 463.477H293.636V473.719C293.636 474.064 293.688 474.33 293.792 474.514C293.901 474.694 294.043 474.817 294.218 474.884C294.394 474.95 294.588 474.983 294.801 474.983C294.962 474.983 295.109 474.971 295.241 474.947C295.378 474.924 295.483 474.902 295.554 474.884L295.987 476.893C295.85 476.941 295.653 476.993 295.397 477.05C295.146 477.107 294.839 477.14 294.474 477.149C293.83 477.168 293.25 477.071 292.734 476.858C292.218 476.64 291.808 476.304 291.505 475.849C291.207 475.395 291.06 474.827 291.065 474.145V463.477ZM297.938 477V466.091H300.509V477H297.938ZM299.231 464.543C298.824 464.543 298.473 464.408 298.18 464.138C297.886 463.863 297.739 463.534 297.739 463.151C297.739 462.762 297.886 462.433 298.18 462.163C298.473 461.889 298.824 461.751 299.231 461.751C299.643 461.751 299.993 461.889 300.282 462.163C300.576 462.433 300.722 462.762 300.722 463.151C300.722 463.534 300.576 463.863 300.282 464.138C299.993 464.408 299.643 464.543 299.231 464.543ZM307.912 477.213C306.846 477.213 305.923 476.979 305.142 476.51C304.36 476.041 303.754 475.385 303.324 474.543C302.897 473.7 302.684 472.715 302.684 471.588C302.684 470.461 302.897 469.474 303.324 468.626C303.754 467.779 304.36 467.121 305.142 466.652C305.923 466.183 306.846 465.949 307.912 465.949C308.977 465.949 309.9 466.183 310.681 466.652C311.463 467.121 312.066 467.779 312.493 468.626C312.923 469.474 313.139 470.461 313.139 471.588C313.139 472.715 312.923 473.7 312.493 474.543C312.066 475.385 311.463 476.041 310.681 476.51C309.9 476.979 308.977 477.213 307.912 477.213ZM307.926 475.153C308.503 475.153 308.986 474.995 309.375 474.678C309.763 474.356 310.052 473.925 310.241 473.385C310.435 472.845 310.532 472.244 310.532 471.581C310.532 470.913 310.435 470.31 310.241 469.77C310.052 469.225 309.763 468.792 309.375 468.47C308.986 468.148 308.503 467.987 307.926 467.987C307.334 467.987 306.842 468.148 306.449 468.47C306.06 468.792 305.769 469.225 305.575 469.77C305.386 470.31 305.291 470.913 305.291 471.581C305.291 472.244 305.386 472.845 305.575 473.385C305.769 473.925 306.06 474.356 306.449 474.678C306.842 474.995 307.334 475.153 307.926 475.153ZM317.892 470.608V477H315.321V466.091H317.778V467.945H317.906C318.157 467.334 318.557 466.848 319.107 466.489C319.661 466.129 320.345 465.949 321.159 465.949C321.912 465.949 322.568 466.11 323.126 466.432C323.69 466.754 324.125 467.22 324.433 467.831C324.746 468.442 324.9 469.183 324.895 470.054V477H322.324V470.452C322.324 469.723 322.134 469.152 321.756 468.74C321.382 468.328 320.863 468.122 320.2 468.122C319.75 468.122 319.35 468.222 319 468.42C318.654 468.615 318.382 468.896 318.183 469.266C317.989 469.635 317.892 470.082 317.892 470.608ZM337.995 466.091V468.08H331.546V466.091H337.995ZM333.158 477V465.061C333.158 464.327 333.31 463.716 333.613 463.229C333.921 462.741 334.333 462.376 334.849 462.135C335.365 461.893 335.938 461.773 336.567 461.773C337.013 461.773 337.408 461.808 337.754 461.879C338.099 461.95 338.355 462.014 338.521 462.071L338.009 464.06C337.9 464.027 337.763 463.993 337.597 463.96C337.432 463.922 337.247 463.903 337.043 463.903C336.565 463.903 336.227 464.019 336.028 464.251C335.834 464.479 335.737 464.805 335.737 465.232V477H333.158ZM344.357 477.213C343.292 477.213 342.368 476.979 341.587 476.51C340.806 476.041 340.2 475.385 339.769 474.543C339.343 473.7 339.13 472.715 339.13 471.588C339.13 470.461 339.343 469.474 339.769 468.626C340.2 467.779 340.806 467.121 341.587 466.652C342.368 466.183 343.292 465.949 344.357 465.949C345.422 465.949 346.346 466.183 347.127 466.652C347.908 467.121 348.512 467.779 348.938 468.626C349.369 469.474 349.584 470.461 349.584 471.588C349.584 472.715 349.369 473.7 348.938 474.543C348.512 475.385 347.908 476.041 347.127 476.51C346.346 476.979 345.422 477.213 344.357 477.213ZM344.371 475.153C344.949 475.153 345.432 474.995 345.82 474.678C346.208 474.356 346.497 473.925 346.686 473.385C346.881 472.845 346.978 472.244 346.978 471.581C346.978 470.913 346.881 470.31 346.686 469.77C346.497 469.225 346.208 468.792 345.82 468.47C345.432 468.148 344.949 467.987 344.371 467.987C343.779 467.987 343.287 468.148 342.894 468.47C342.506 468.792 342.214 469.225 342.02 469.77C341.831 470.31 341.736 470.913 341.736 471.581C341.736 472.244 341.831 472.845 342.02 473.385C342.214 473.925 342.506 474.356 342.894 474.678C343.287 474.995 343.779 475.153 344.371 475.153ZM351.766 477V466.091H354.259V467.909H354.373C354.572 467.279 354.913 466.794 355.396 466.453C355.883 466.107 356.44 465.935 357.065 465.935C357.207 465.935 357.365 465.942 357.54 465.956C357.72 465.965 357.87 465.982 357.988 466.006V468.371C357.879 468.333 357.706 468.3 357.469 468.271C357.237 468.238 357.013 468.222 356.795 468.222C356.326 468.222 355.905 468.323 355.531 468.527C355.161 468.726 354.87 469.003 354.657 469.358C354.444 469.713 354.337 470.123 354.337 470.587V477H351.766ZM367.796 477.22C367.105 477.22 366.482 477.097 365.928 476.851C365.379 476.6 364.943 476.231 364.621 475.743C364.304 475.255 364.146 474.654 364.146 473.939C364.146 473.323 364.259 472.814 364.487 472.412C364.714 472.009 365.024 471.688 365.417 471.446C365.81 471.205 366.253 471.022 366.745 470.899C367.242 470.771 367.756 470.679 368.286 470.622C368.925 470.556 369.444 470.497 369.842 470.445C370.239 470.388 370.528 470.303 370.708 470.189C370.893 470.071 370.985 469.888 370.985 469.642V469.599C370.985 469.064 370.826 468.65 370.509 468.357C370.192 468.063 369.735 467.916 369.138 467.916C368.509 467.916 368.009 468.054 367.64 468.328C367.275 468.603 367.029 468.927 366.901 469.301L364.501 468.96C364.69 468.297 365.003 467.743 365.438 467.298C365.874 466.848 366.406 466.512 367.036 466.29C367.666 466.062 368.362 465.949 369.124 465.949C369.65 465.949 370.173 466.01 370.694 466.134C371.215 466.257 371.691 466.46 372.121 466.744C372.552 467.024 372.898 467.405 373.158 467.888C373.424 468.371 373.556 468.974 373.556 469.699V477H371.085V475.501H370.999C370.843 475.804 370.623 476.089 370.339 476.354C370.059 476.614 369.707 476.825 369.281 476.986C368.859 477.142 368.364 477.22 367.796 477.22ZM368.464 475.331C368.98 475.331 369.427 475.229 369.806 475.026C370.185 474.817 370.476 474.543 370.68 474.202C370.888 473.861 370.992 473.489 370.992 473.087V471.801C370.912 471.867 370.774 471.929 370.58 471.986C370.391 472.043 370.178 472.092 369.941 472.135C369.704 472.178 369.47 472.215 369.238 472.249C369.006 472.282 368.805 472.31 368.634 472.334C368.251 472.386 367.907 472.471 367.604 472.589C367.301 472.708 367.062 472.874 366.887 473.087C366.712 473.295 366.624 473.565 366.624 473.896C366.624 474.37 366.797 474.727 367.143 474.969C367.488 475.21 367.929 475.331 368.464 475.331ZM378.712 462.455V477H376.141V462.455H378.712ZM383.927 462.455V477H381.356V462.455H383.927ZM205.321 501V490.091H207.778V491.945H207.906C208.134 491.32 208.51 490.832 209.036 490.482C209.561 490.126 210.188 489.949 210.918 489.949C211.656 489.949 212.279 490.129 212.786 490.489C213.297 490.844 213.657 491.329 213.865 491.945H213.979C214.22 491.339 214.627 490.856 215.2 490.496C215.778 490.131 216.462 489.949 217.253 489.949C218.257 489.949 219.076 490.266 219.71 490.901C220.345 491.535 220.662 492.461 220.662 493.678V501H218.084V494.075C218.084 493.398 217.904 492.903 217.544 492.591C217.184 492.274 216.744 492.115 216.223 492.115C215.603 492.115 215.117 492.309 214.767 492.697C214.421 493.081 214.249 493.58 214.249 494.196V501H211.727V493.969C211.727 493.405 211.557 492.955 211.216 492.619C210.88 492.283 210.439 492.115 209.895 492.115C209.526 492.115 209.189 492.21 208.886 492.399C208.583 492.584 208.342 492.847 208.162 493.188C207.982 493.524 207.892 493.917 207.892 494.366V501H205.321ZM226.409 501.22C225.718 501.22 225.096 501.097 224.542 500.851C223.992 500.6 223.557 500.231 223.235 499.743C222.917 499.255 222.759 498.654 222.759 497.939C222.759 497.323 222.873 496.814 223.1 496.412C223.327 496.009 223.637 495.688 224.03 495.446C224.423 495.205 224.866 495.022 225.358 494.899C225.855 494.771 226.369 494.679 226.9 494.622C227.539 494.556 228.057 494.497 228.455 494.445C228.853 494.388 229.141 494.303 229.321 494.189C229.506 494.071 229.598 493.888 229.598 493.642V493.599C229.598 493.064 229.44 492.65 229.123 492.357C228.805 492.063 228.348 491.916 227.752 491.916C227.122 491.916 226.623 492.054 226.253 492.328C225.889 492.603 225.642 492.927 225.515 493.301L223.114 492.96C223.303 492.297 223.616 491.743 224.051 491.298C224.487 490.848 225.02 490.512 225.65 490.29C226.279 490.062 226.975 489.949 227.738 489.949C228.263 489.949 228.786 490.01 229.307 490.134C229.828 490.257 230.304 490.46 230.735 490.744C231.166 491.024 231.511 491.405 231.772 491.888C232.037 492.371 232.169 492.974 232.169 493.699V501H229.698V499.501H229.613C229.456 499.804 229.236 500.089 228.952 500.354C228.673 500.614 228.32 500.825 227.894 500.986C227.472 501.142 226.978 501.22 226.409 501.22ZM227.077 499.331C227.593 499.331 228.041 499.229 228.419 499.026C228.798 498.817 229.089 498.543 229.293 498.202C229.501 497.861 229.605 497.489 229.605 497.087V495.801C229.525 495.867 229.388 495.929 229.194 495.986C229.004 496.043 228.791 496.092 228.554 496.135C228.318 496.178 228.083 496.215 227.851 496.249C227.619 496.282 227.418 496.31 227.248 496.334C226.864 496.386 226.521 496.471 226.218 496.589C225.915 496.708 225.676 496.874 225.5 497.087C225.325 497.295 225.238 497.565 225.238 497.896C225.238 498.37 225.41 498.727 225.756 498.969C226.102 499.21 226.542 499.331 227.077 499.331ZM237.326 494.608V501H234.755V490.091H237.212V491.945H237.34C237.591 491.334 237.991 490.848 238.54 490.489C239.094 490.129 239.778 489.949 240.593 489.949C241.346 489.949 242.001 490.11 242.56 490.432C243.123 490.754 243.559 491.22 243.867 491.831C244.179 492.442 244.333 493.183 244.328 494.054V501H241.757V494.452C241.757 493.723 241.568 493.152 241.189 492.74C240.815 492.328 240.297 492.122 239.634 492.122C239.184 492.122 238.784 492.222 238.434 492.42C238.088 492.615 237.816 492.896 237.617 493.266C237.423 493.635 237.326 494.082 237.326 494.608ZM251.686 505.318C250.763 505.318 249.97 505.193 249.307 504.942C248.644 504.696 248.112 504.364 247.709 503.947C247.307 503.531 247.027 503.069 246.871 502.562L249.186 502.001C249.291 502.214 249.442 502.425 249.641 502.634C249.84 502.847 250.107 503.022 250.444 503.159C250.784 503.301 251.213 503.372 251.729 503.372C252.458 503.372 253.062 503.195 253.54 502.839C254.018 502.489 254.257 501.911 254.257 501.107V499.04H254.13C253.997 499.305 253.803 499.577 253.547 499.857C253.296 500.136 252.962 500.37 252.546 500.56C252.134 500.749 251.615 500.844 250.99 500.844C250.152 500.844 249.392 500.647 248.711 500.254C248.033 499.857 247.494 499.265 247.091 498.479C246.694 497.688 246.495 496.698 246.495 495.51C246.495 494.312 246.694 493.301 247.091 492.477C247.494 491.649 248.036 491.021 248.718 490.595C249.4 490.164 250.159 489.949 250.998 489.949C251.637 489.949 252.162 490.058 252.574 490.276C252.991 490.489 253.322 490.747 253.569 491.05C253.815 491.348 254.002 491.63 254.13 491.895H254.272V490.091H256.807V501.178C256.807 502.11 256.585 502.882 256.14 503.493C255.694 504.104 255.086 504.561 254.314 504.864C253.542 505.167 252.667 505.318 251.686 505.318ZM251.708 498.827C252.252 498.827 252.716 498.694 253.1 498.429C253.483 498.164 253.775 497.783 253.973 497.286C254.172 496.788 254.272 496.192 254.272 495.496C254.272 494.809 254.172 494.208 253.973 493.692C253.779 493.176 253.49 492.776 253.107 492.491C252.728 492.203 252.262 492.058 251.708 492.058C251.135 492.058 250.657 492.207 250.273 492.506C249.89 492.804 249.601 493.214 249.407 493.734C249.212 494.25 249.115 494.838 249.115 495.496C249.115 496.163 249.212 496.748 249.407 497.25C249.605 497.747 249.897 498.135 250.28 498.415C250.668 498.689 251.144 498.827 251.708 498.827ZM264.272 501.213C263.178 501.213 262.233 500.986 261.438 500.531C260.647 500.072 260.039 499.423 259.613 498.585C259.186 497.742 258.973 496.75 258.973 495.609C258.973 494.487 259.186 493.502 259.613 492.655C260.043 491.803 260.645 491.14 261.417 490.666C262.188 490.188 263.095 489.949 264.137 489.949C264.809 489.949 265.444 490.058 266.04 490.276C266.641 490.489 267.172 490.82 267.631 491.27C268.095 491.72 268.46 492.293 268.725 492.989C268.99 493.68 269.123 494.504 269.123 495.46V496.249H260.181V494.516H266.658C266.653 494.023 266.547 493.585 266.338 493.202C266.13 492.813 265.839 492.508 265.465 492.286C265.096 492.063 264.665 491.952 264.172 491.952C263.647 491.952 263.185 492.08 262.787 492.335C262.39 492.586 262.079 492.918 261.857 493.33C261.639 493.737 261.528 494.184 261.523 494.672V496.185C261.523 496.819 261.639 497.364 261.871 497.818C262.103 498.268 262.427 498.614 262.844 498.855C263.261 499.092 263.748 499.21 264.307 499.21C264.681 499.21 265.02 499.158 265.323 499.054C265.626 498.945 265.889 498.786 266.111 498.578C266.334 498.37 266.502 498.112 266.615 497.804L269.016 498.074C268.864 498.708 268.576 499.262 268.15 499.736C267.728 500.205 267.188 500.569 266.53 500.83C265.872 501.085 265.119 501.213 264.272 501.213ZM271.298 501V490.091H273.755V491.945H273.883C274.11 491.32 274.487 490.832 275.012 490.482C275.538 490.126 276.165 489.949 276.894 489.949C277.633 489.949 278.255 490.129 278.762 490.489C279.273 490.844 279.633 491.329 279.842 491.945H279.955C280.197 491.339 280.604 490.856 281.177 490.496C281.754 490.131 282.439 489.949 283.229 489.949C284.233 489.949 285.052 490.266 285.687 490.901C286.321 491.535 286.638 492.461 286.638 493.678V501H284.06V494.075C284.06 493.398 283.88 492.903 283.521 492.591C283.161 492.274 282.72 492.115 282.2 492.115C281.579 492.115 281.094 492.309 280.744 492.697C280.398 493.081 280.225 493.58 280.225 494.196V501H277.704V493.969C277.704 493.405 277.533 492.955 277.192 492.619C276.856 492.283 276.416 492.115 275.871 492.115C275.502 492.115 275.166 492.21 274.863 492.399C274.56 492.584 274.318 492.847 274.138 493.188C273.959 493.524 273.869 493.917 273.869 494.366V501H271.298ZM294.076 501.213C292.983 501.213 292.038 500.986 291.243 500.531C290.452 500.072 289.843 499.423 289.417 498.585C288.991 497.742 288.778 496.75 288.778 495.609C288.778 494.487 288.991 493.502 289.417 492.655C289.848 491.803 290.449 491.14 291.221 490.666C291.993 490.188 292.9 489.949 293.941 489.949C294.614 489.949 295.248 490.058 295.845 490.276C296.446 490.489 296.976 490.82 297.436 491.27C297.9 491.72 298.264 492.293 298.529 492.989C298.795 493.68 298.927 494.504 298.927 495.46V496.249H289.985V494.516H296.463C296.458 494.023 296.351 493.585 296.143 493.202C295.935 492.813 295.644 492.508 295.27 492.286C294.9 492.063 294.469 491.952 293.977 491.952C293.451 491.952 292.99 492.08 292.592 492.335C292.194 492.586 291.884 492.918 291.662 493.33C291.444 493.737 291.333 494.184 291.328 494.672V496.185C291.328 496.819 291.444 497.364 291.676 497.818C291.908 498.268 292.232 498.614 292.649 498.855C293.065 499.092 293.553 499.21 294.112 499.21C294.486 499.21 294.824 499.158 295.127 499.054C295.431 498.945 295.693 498.786 295.916 498.578C296.138 498.37 296.306 498.112 296.42 497.804L298.821 498.074C298.669 498.708 298.38 499.262 297.954 499.736C297.533 500.205 296.993 500.569 296.335 500.83C295.677 501.085 294.924 501.213 294.076 501.213ZM303.673 494.608V501H301.102V490.091H303.56V491.945H303.688C303.938 491.334 304.339 490.848 304.888 490.489C305.442 490.129 306.126 489.949 306.94 489.949C307.693 489.949 308.349 490.11 308.908 490.432C309.471 490.754 309.907 491.22 310.214 491.831C310.527 492.442 310.681 493.183 310.676 494.054V501H308.105V494.452C308.105 493.723 307.916 493.152 307.537 492.74C307.163 492.328 306.644 492.122 305.982 492.122C305.532 492.122 305.132 492.222 304.781 492.42C304.436 492.615 304.163 492.896 303.964 493.266C303.77 493.635 303.673 494.082 303.673 494.608ZM318.737 490.091V492.08H312.466V490.091H318.737ZM314.014 487.477H316.585V497.719C316.585 498.064 316.637 498.33 316.741 498.514C316.85 498.694 316.992 498.817 317.168 498.884C317.343 498.95 317.537 498.983 317.75 498.983C317.911 498.983 318.058 498.971 318.19 498.947C318.328 498.924 318.432 498.902 318.503 498.884L318.936 500.893C318.799 500.941 318.602 500.993 318.347 501.05C318.096 501.107 317.788 501.14 317.423 501.149C316.779 501.168 316.199 501.071 315.683 500.858C315.167 500.64 314.758 500.304 314.455 499.849C314.156 499.395 314.009 498.827 314.014 498.145V487.477ZM325.848 505.091V490.091H328.377V491.895H328.526C328.658 491.63 328.846 491.348 329.087 491.05C329.328 490.747 329.655 490.489 330.067 490.276C330.479 490.058 331.005 489.949 331.644 489.949C332.487 489.949 333.247 490.164 333.924 490.595C334.605 491.021 335.145 491.653 335.543 492.491C335.945 493.325 336.147 494.348 336.147 495.56C336.147 496.758 335.95 497.776 335.557 498.614C335.164 499.452 334.629 500.091 333.952 500.531C333.275 500.972 332.508 501.192 331.651 501.192C331.026 501.192 330.507 501.088 330.096 500.879C329.684 500.671 329.352 500.42 329.101 500.126C328.855 499.828 328.663 499.546 328.526 499.281H328.419V505.091H325.848ZM328.37 495.545C328.37 496.251 328.469 496.869 328.668 497.399C328.872 497.929 329.163 498.344 329.542 498.642C329.925 498.936 330.389 499.082 330.934 499.082C331.502 499.082 331.978 498.931 332.361 498.628C332.745 498.32 333.033 497.901 333.228 497.371C333.426 496.836 333.526 496.227 333.526 495.545C333.526 494.868 333.429 494.267 333.235 493.741C333.041 493.216 332.752 492.804 332.368 492.506C331.985 492.207 331.507 492.058 330.934 492.058C330.384 492.058 329.918 492.203 329.534 492.491C329.151 492.78 328.86 493.185 328.661 493.706C328.467 494.227 328.37 494.84 328.37 495.545ZM338.348 501V490.091H340.841V491.909H340.955C341.154 491.279 341.495 490.794 341.978 490.453C342.465 490.107 343.022 489.935 343.647 489.935C343.789 489.935 343.947 489.942 344.123 489.956C344.302 489.965 344.452 489.982 344.57 490.006V492.371C344.461 492.333 344.288 492.3 344.051 492.271C343.819 492.238 343.595 492.222 343.377 492.222C342.908 492.222 342.487 492.323 342.113 492.527C341.743 492.726 341.452 493.003 341.239 493.358C341.026 493.713 340.919 494.123 340.919 494.587V501H338.348ZM350.587 501.213C349.522 501.213 348.599 500.979 347.817 500.51C347.036 500.041 346.43 499.385 345.999 498.543C345.573 497.7 345.36 496.715 345.36 495.588C345.36 494.461 345.573 493.474 345.999 492.626C346.43 491.779 347.036 491.121 347.817 490.652C348.599 490.183 349.522 489.949 350.587 489.949C351.653 489.949 352.576 490.183 353.357 490.652C354.138 491.121 354.742 491.779 355.168 492.626C355.599 493.474 355.815 494.461 355.815 495.588C355.815 496.715 355.599 497.7 355.168 498.543C354.742 499.385 354.138 500.041 353.357 500.51C352.576 500.979 351.653 501.213 350.587 501.213ZM350.602 499.153C351.179 499.153 351.662 498.995 352.05 498.678C352.439 498.356 352.728 497.925 352.917 497.385C353.111 496.845 353.208 496.244 353.208 495.581C353.208 494.913 353.111 494.31 352.917 493.77C352.728 493.225 352.439 492.792 352.05 492.47C351.662 492.148 351.179 491.987 350.602 491.987C350.01 491.987 349.517 492.148 349.124 492.47C348.736 492.792 348.445 493.225 348.251 493.77C348.061 494.31 347.967 494.913 347.967 495.581C347.967 496.244 348.061 496.845 348.251 497.385C348.445 497.925 348.736 498.356 349.124 498.678C349.517 498.995 350.01 499.153 350.602 499.153ZM358.11 501V486.455H360.681V491.895H360.788C360.921 491.63 361.108 491.348 361.349 491.05C361.591 490.747 361.917 490.489 362.329 490.276C362.741 490.058 363.267 489.949 363.906 489.949C364.749 489.949 365.509 490.164 366.186 490.595C366.868 491.021 367.407 491.653 367.805 492.491C368.208 493.325 368.409 494.348 368.409 495.56C368.409 496.758 368.212 497.776 367.819 498.614C367.426 499.452 366.891 500.091 366.214 500.531C365.537 500.972 364.77 501.192 363.913 501.192C363.288 501.192 362.77 501.088 362.358 500.879C361.946 500.671 361.614 500.42 361.363 500.126C361.117 499.828 360.925 499.546 360.788 499.281H360.639V501H358.11ZM360.632 495.545C360.632 496.251 360.731 496.869 360.93 497.399C361.134 497.929 361.425 498.344 361.804 498.642C362.187 498.936 362.651 499.082 363.196 499.082C363.764 499.082 364.24 498.931 364.623 498.628C365.007 498.32 365.296 497.901 365.49 497.371C365.689 496.836 365.788 496.227 365.788 495.545C365.788 494.868 365.691 494.267 365.497 493.741C365.303 493.216 365.014 492.804 364.63 492.506C364.247 492.207 363.769 492.058 363.196 492.058C362.646 492.058 362.18 492.203 361.797 492.491C361.413 492.78 361.122 493.185 360.923 493.706C360.729 494.227 360.632 494.84 360.632 495.545ZM373.165 486.455V501H370.594V486.455H373.165ZM380.639 501.213C379.545 501.213 378.6 500.986 377.805 500.531C377.014 500.072 376.406 499.423 375.98 498.585C375.554 497.742 375.341 496.75 375.341 495.609C375.341 494.487 375.554 493.502 375.98 492.655C376.411 491.803 377.012 491.14 377.784 490.666C378.556 490.188 379.462 489.949 380.504 489.949C381.176 489.949 381.811 490.058 382.407 490.276C383.009 490.489 383.539 490.82 383.998 491.27C384.462 491.72 384.827 492.293 385.092 492.989C385.357 493.68 385.49 494.504 385.49 495.46V496.249H376.548V494.516H383.025C383.02 494.023 382.914 493.585 382.706 493.202C382.497 492.813 382.206 492.508 381.832 492.286C381.463 492.063 381.032 491.952 380.539 491.952C380.014 491.952 379.552 492.08 379.154 492.335C378.757 492.586 378.447 492.918 378.224 493.33C378.006 493.737 377.895 494.184 377.89 494.672V496.185C377.89 496.819 378.006 497.364 378.238 497.818C378.47 498.268 378.795 498.614 379.211 498.855C379.628 499.092 380.116 499.21 380.674 499.21C381.048 499.21 381.387 499.158 381.69 499.054C381.993 498.945 382.256 498.786 382.478 498.578C382.701 498.37 382.869 498.112 382.983 497.804L385.383 498.074C385.232 498.708 384.943 499.262 384.517 499.736C384.095 500.205 383.556 500.569 382.897 500.83C382.239 501.085 381.486 501.213 380.639 501.213ZM387.665 501V490.091H390.122V491.945H390.25C390.477 491.32 390.854 490.832 391.379 490.482C391.905 490.126 392.532 489.949 393.261 489.949C394 489.949 394.623 490.129 395.129 490.489C395.641 490.844 396 491.329 396.209 491.945H396.322C396.564 491.339 396.971 490.856 397.544 490.496C398.122 490.131 398.806 489.949 399.597 489.949C400.6 489.949 401.42 490.266 402.054 490.901C402.688 491.535 403.006 492.461 403.006 493.678V501H400.428V494.075C400.428 493.398 400.248 492.903 399.888 492.591C399.528 492.274 399.088 492.115 398.567 492.115C397.946 492.115 397.461 492.309 397.111 492.697C396.765 493.081 396.592 493.58 396.592 494.196V501H394.071V493.969C394.071 493.405 393.901 492.955 393.56 492.619C393.223 492.283 392.783 492.115 392.239 492.115C391.869 492.115 391.533 492.21 391.23 492.399C390.927 492.584 390.686 492.847 390.506 493.188C390.326 493.524 390.236 493.917 390.236 494.366V501H387.665ZM414.236 492.974L411.892 493.23C411.826 492.993 411.71 492.771 411.544 492.562C411.383 492.354 411.166 492.186 410.891 492.058C410.616 491.93 410.28 491.866 409.882 491.866C409.347 491.866 408.898 491.982 408.533 492.214C408.173 492.446 407.996 492.747 408 493.116C407.996 493.434 408.112 493.692 408.348 493.891C408.59 494.089 408.988 494.253 409.542 494.381L411.402 494.778C412.435 495.001 413.202 495.354 413.703 495.837C414.21 496.32 414.466 496.952 414.471 497.733C414.466 498.42 414.265 499.026 413.867 499.551C413.474 500.072 412.927 500.479 412.226 500.773C411.525 501.066 410.721 501.213 409.811 501.213C408.476 501.213 407.401 500.934 406.587 500.375C405.773 499.812 405.287 499.028 405.131 498.024L407.638 497.783C407.752 498.275 407.993 498.647 408.363 498.898C408.732 499.149 409.212 499.274 409.804 499.274C410.415 499.274 410.905 499.149 411.275 498.898C411.649 498.647 411.836 498.337 411.836 497.967C411.836 497.655 411.715 497.397 411.473 497.193C411.237 496.99 410.867 496.833 410.365 496.724L408.505 496.334C407.458 496.116 406.684 495.749 406.182 495.233C405.68 494.712 405.432 494.054 405.436 493.259C405.432 492.586 405.614 492.004 405.983 491.511C406.357 491.014 406.876 490.631 407.539 490.361C408.206 490.086 408.976 489.949 409.847 489.949C411.125 489.949 412.132 490.221 412.865 490.766C413.604 491.31 414.061 492.046 414.236 492.974Z" fill="#EDDBC7"/>
<path fill-rule="evenodd" clip-rule="evenodd" d="M546.392 278.41C558.309 278.41 570.921 275.476 583.008 271.386C595.117 267.288 606.877 261.967 617.112 257.069C620.31 255.539 623.341 254.06 626.182 252.672C632.529 249.574 637.935 246.935 642.161 245.215C645.299 243.938 647.321 243.372 648.402 243.32C648.565 243.312 648.651 243.319 648.681 243.323L648.691 243.325L648.695 243.325C648.695 243.325 648.693 243.324 648.689 243.324L648.681 243.323C648.641 243.314 648.514 243.278 648.361 243.163C648.333 243.143 648.309 243.123 648.288 243.104L648.695 243.325C587.782 258.359 649.32 239.743 648.087 238.82C646.878 237.916 649.292 238.762 648.087 238.82C645.774 238.931 642.844 239.913 639.754 241.171C635.335 242.97 629.635 245.752 623.173 248.906C620.372 250.273 617.428 251.711 614.382 253.168C604.207 258.038 592.703 263.235 580.944 267.215C569.163 271.202 557.302 273.903 546.392 273.903C523.363 273.903 502.404 276.36 487.11 280.39C479.479 282.401 473.106 284.843 468.582 287.662C464.104 290.452 461 293.903 461 297.941C461 301.98 464.104 305.431 468.582 308.221C473.106 311.04 479.479 313.482 487.11 315.493C492.623 316.945 498.871 318.194 505.688 319.196C480.632 322.271 463.725 328.333 463.725 336.465C463.725 344.369 479.702 349.669 503.61 352.375C479.702 356.193 463.725 363.115 463.725 371.019C463.725 378.516 478.096 385.129 499.973 389.048C478.096 392.967 463.725 399.58 463.725 407.077C463.725 415.076 480.086 422.068 504.471 425.857C480.086 429.645 463.725 436.637 463.725 444.636C463.725 456.588 500.246 466.291 545.484 466.42V516H549.117V466.409C593.511 466.031 629.059 456.427 629.059 444.636C629.059 436.637 612.697 429.645 588.313 425.857C612.697 422.068 629.059 415.076 629.059 407.077C629.059 399.58 614.688 392.967 592.81 389.048C614.688 385.129 629.059 378.516 629.059 371.019C629.059 363.115 613.082 356.193 589.174 352.375C613.082 349.669 629.059 344.369 629.059 336.465C629.059 324.433 592.047 316.933 546.392 316.933C541.698 316.933 537.095 317.013 532.614 317.168C515.549 316.405 500.353 314.252 488.765 311.198C481.437 309.267 475.704 307.015 471.862 304.621C467.973 302.199 466.451 299.918 466.451 297.941C466.451 295.965 467.973 293.684 471.862 291.262C475.704 288.868 481.437 286.616 488.765 284.685C503.391 280.83 523.766 278.41 546.392 278.41ZM549.117 461.902C570.441 461.716 589.481 459.359 603.191 455.746C610.368 453.855 615.781 451.698 619.282 449.516C622.876 447.278 623.608 445.582 623.608 444.636C623.608 443.691 622.876 441.995 619.282 439.757C615.781 437.575 610.368 435.418 603.191 433.527C593.655 431.014 581.541 429.108 567.874 428.119C561.864 428.544 555.585 428.795 549.117 428.85V461.902ZM549.117 422.863C555.585 422.919 561.864 423.17 567.874 423.595C581.541 422.605 593.655 420.699 603.191 418.186C610.368 416.295 615.781 414.138 619.282 411.957C622.876 409.718 623.608 408.023 623.608 407.077C623.608 406.131 622.876 404.436 619.282 402.197C615.781 400.015 610.368 397.858 603.191 395.967C595.701 393.993 586.621 392.394 576.447 391.32C567.933 392.196 558.733 392.71 549.117 392.792V422.863ZM545.484 392.803V422.853C538.374 422.873 531.481 423.13 524.91 423.595C511.243 422.605 499.129 420.699 489.593 418.186C482.416 416.295 477.003 414.138 473.502 411.957C469.908 409.718 469.176 408.023 469.176 407.077C469.176 406.131 469.908 404.436 473.502 402.197C477.003 400.015 482.416 397.858 489.593 395.967C497.082 393.993 506.162 392.394 516.337 391.32C525.385 392.251 535.21 392.774 545.484 392.803ZM549.117 385.304V373.273H545.484V385.293C535.21 385.323 525.385 385.846 516.337 386.777C506.162 385.702 497.082 384.103 489.593 382.129C482.416 380.238 477.003 378.081 473.502 375.899C469.908 373.661 469.176 371.965 469.176 371.019C469.176 370.074 469.908 368.378 473.502 366.14C477.003 363.958 482.416 361.801 489.593 359.91C500.192 357.117 513.975 355.074 529.537 354.205C534.979 354.397 540.616 354.493 546.392 354.493C552.168 354.493 557.805 354.397 563.247 354.205C578.809 355.074 592.592 357.117 603.191 359.91C610.368 361.801 615.781 363.958 619.282 366.14C622.876 368.378 623.608 370.074 623.608 371.019C623.608 371.965 622.876 373.661 619.282 375.899C615.781 378.081 610.368 380.238 603.191 382.129C595.701 384.103 586.621 385.702 576.447 386.777C567.933 385.901 558.733 385.386 549.117 385.304ZM545.484 428.86V461.913C523.425 461.849 503.691 459.461 489.593 455.746C482.416 453.855 477.003 451.698 473.502 449.516C469.908 447.278 469.176 445.582 469.176 444.636C469.176 443.691 469.908 441.995 473.502 439.757C477.003 437.575 482.416 435.418 489.593 433.527C499.129 431.014 511.243 429.108 524.91 428.119C531.481 428.583 538.374 428.84 545.484 428.86ZM546.392 349.235C552.19 349.235 557.849 349.392 563.311 349.692C579.013 349.126 592.891 347.753 603.56 345.611C610.785 344.16 616.153 342.431 619.586 340.581C623.054 338.713 623.608 337.281 623.608 336.465C623.608 335.595 622.979 334.058 619.46 332.043C615.999 330.061 610.614 328.162 603.41 326.535C589.077 323.298 568.933 321.441 546.392 321.441V321.98C541.693 321.98 537.08 321.877 532.584 321.68C515.673 322.279 500.707 323.976 489.374 326.535C482.17 328.162 476.785 330.061 473.324 332.043C469.805 334.058 469.176 335.595 469.176 336.465C469.176 337.281 469.73 338.713 473.197 340.581C476.631 342.431 481.999 344.16 489.224 345.611C499.893 347.753 513.771 349.126 529.473 349.692C534.934 349.392 540.593 349.235 546.392 349.235Z" fill="#EDDBC7"/>
<defs>
<filter id="filter0_d_1092_1412" x="1.16602" y="0" width="652.439" height="767" filterUnits="userSpaceOnUse" color-interpolation-filters="sRGB">
<feFlood flood-opacity="0" result="BackgroundImageFix"/>
<feColorMatrix in="SourceAlpha" type="matrix" values="0 0 0 0 0 0 0 0 0 0 0 0 0 0 0 0 0 0 127 0" result="hardAlpha"/>
<feOffset dy="4"/>
<feGaussianBlur stdDeviation="2"/>
<feComposite in2="hardAlpha" operator="out"/>
<feColorMatrix type="matrix" values="0 0 0 0 0 0 0 0 0 0 0 0 0 0 0 0 0 0 0.25 0"/>
<feBlend mode="normal" in2="BackgroundImageFix" result="effect1_dropShadow_1092_1412"/>
<feBlend mode="normal" in="SourceGraphic" in2="effect1_dropShadow_1092_1412" result="shape"/>
</filter>
<filter id="filter1_i_1092_1412" x="207.925" y="199.976" width="233.755" height="194.886" filterUnits="userSpaceOnUse" color-interpolation-filters="sRGB">
<feFlood flood-opacity="0" result="BackgroundImageFix"/>
<feBlend mode="normal" in="SourceGraphic" in2="BackgroundImageFix" result="shape"/>
<feColorMatrix in="SourceAlpha" type="matrix" values="0 0 0 0 0 0 0 0 0 0 0 0 0 0 0 0 0 0 127 0" result="hardAlpha"/>
<feOffset dy="4"/>
<feGaussianBlur stdDeviation="2"/>
<feComposite in2="hardAlpha" operator="arithmetic" k2="-1" k3="1"/>
<feColorMatrix type="matrix" values="0 0 0 0 0 0 0 0 0 0 0 0 0 0 0 0 0 0 0.25 0"/>
<feBlend mode="normal" in2="shape" result="effect1_innerShadow_1092_1412"/>
</filter>
</defs>
</svg>
